<svg width="27" height="26" viewBox="0 0 27 26" fill="none" xmlns="http://www.w3.org/2000/svg">
<g clip-path="url(#clip0_21_269)">
<path d="M9.86838 0.736816C11.393 0.736816 12.6315 1.9753 12.6315 3.49997V23.2368C12.6315 24.7615 11.393 26 9.86838 26C8.44239 26 7.26805 24.9194 7.12002 23.5279C6.86344 23.597 6.59206 23.6316 6.31574 23.6316C4.57397 23.6316 3.15785 22.2154 3.15785 20.4737C3.15785 20.1085 3.22199 19.7533 3.33548 19.4276C1.84535 18.8651 0.789429 17.4243 0.789429 15.7368C0.789429 14.1628 1.71213 12.801 3.0493 12.1694C2.62002 11.6316 2.36838 10.9506 2.36838 10.2105C2.36838 8.6957 3.43417 7.43254 4.85522 7.12168C4.77627 6.8503 4.7368 6.55919 4.7368 6.26313C4.7368 4.7878 5.75324 3.54438 7.12002 3.19899C7.26805 1.81741 8.44239 0.736816 9.86838 0.736816ZM16.9736 0.736816C18.3996 0.736816 19.569 1.81741 19.722 3.19899C21.0937 3.54438 22.1052 4.78287 22.1052 6.26313C22.1052 6.55919 22.0657 6.8503 21.9868 7.12168C23.4079 7.42761 24.4736 8.6957 24.4736 10.2105C24.4736 10.9506 24.222 11.6316 23.7927 12.1694C25.1299 12.801 26.0526 14.1628 26.0526 15.7368C26.0526 17.4243 24.9967 18.8651 23.5065 19.4276C23.62 19.7533 23.6842 20.1085 23.6842 20.4737C23.6842 22.2154 22.268 23.6316 20.5263 23.6316C20.25 23.6316 19.9786 23.597 19.722 23.5279C19.574 24.9194 18.3996 26 16.9736 26C15.449 26 14.2105 24.7615 14.2105 23.2368V3.49997C14.2105 1.9753 15.449 0.736816 16.9736 0.736816Z" fill="black"/>
</g>
<defs>
<clipPath id="clip0_21_269">
<path d="M0.789429 0.736816H26.0526V26H0.789429V0.736816Z" fill="white"/>
</clipPath>
</defs>
</svg>
