<svg width="26" height="35" viewBox="0 0 26 35" fill="none" xmlns="http://www.w3.org/2000/svg">
<path d="M25.8416 34.2635H0.578857V0.578918H25.8416V34.2635Z" stroke="#E5E7EB"/>
<g clip-path="url(#clip0_21_284)">
<path d="M25.842 16.3684C25.842 16.4128 25.842 16.4572 25.842 16.5016C25.8223 18.3026 24.1841 19.5263 22.3831 19.5263H17.5525C16.245 19.5263 15.1841 20.5871 15.1841 21.8947C15.1841 22.0625 15.2039 22.2253 15.2335 22.3832C15.3371 22.8865 15.5542 23.37 15.7664 23.8585C16.0673 24.5394 16.3634 25.2154 16.3634 25.9309C16.3634 27.5 15.2976 28.926 13.7285 28.9901C13.5558 28.995 13.3831 29 13.2055 29C6.23346 29 0.578857 23.3454 0.578857 16.3684C0.578857 9.39142 6.23346 3.73682 13.2104 3.73682C20.1874 3.73682 25.842 9.39142 25.842 16.3684ZM6.89465 17.9473C6.89465 17.5286 6.72829 17.127 6.43218 16.8309C6.13607 16.5347 5.73446 16.3684 5.3157 16.3684C4.89694 16.3684 4.49533 16.5347 4.19922 16.8309C3.90311 17.127 3.73675 17.5286 3.73675 17.9473C3.73675 18.3661 3.90311 18.7677 4.19922 19.0638C4.49533 19.3599 4.89694 19.5263 5.3157 19.5263C5.73446 19.5263 6.13607 19.3599 6.43218 19.0638C6.72829 18.7677 6.89465 18.3661 6.89465 17.9473ZM6.89465 13.2105C7.31341 13.2105 7.71502 13.0441 8.01113 12.748C8.30724 12.4519 8.47359 12.0503 8.47359 11.6316C8.47359 11.2128 8.30724 10.8112 8.01113 10.5151C7.71502 10.219 7.31341 10.0526 6.89465 10.0526C6.47588 10.0526 6.07427 10.219 5.77816 10.5151C5.48205 10.8112 5.3157 11.2128 5.3157 11.6316C5.3157 12.0503 5.48205 12.4519 5.77816 12.748C6.07427 13.0441 6.47588 13.2105 6.89465 13.2105ZM14.7894 8.47366C14.7894 8.0549 14.623 7.65328 14.3269 7.35717C14.0308 7.06106 13.6292 6.89471 13.2104 6.89471C12.7917 6.89471 12.3901 7.06106 12.094 7.35717C11.7978 7.65328 11.6315 8.0549 11.6315 8.47366C11.6315 8.89242 11.7978 9.29403 12.094 9.59014C12.3901 9.88625 12.7917 10.0526 13.2104 10.0526C13.6292 10.0526 14.0308 9.88625 14.3269 9.59014C14.623 9.29403 14.7894 8.89242 14.7894 8.47366ZM19.5262 13.2105C19.945 13.2105 20.3466 13.0441 20.6427 12.748C20.9388 12.4519 21.1052 12.0503 21.1052 11.6316C21.1052 11.2128 20.9388 10.8112 20.6427 10.5151C20.3466 10.219 19.945 10.0526 19.5262 10.0526C19.1075 10.0526 18.7059 10.219 18.4097 10.5151C18.1136 10.8112 17.9473 11.2128 17.9473 11.6316C17.9473 12.0503 18.1136 12.4519 18.4097 12.748C18.7059 13.0441 19.1075 13.2105 19.5262 13.2105Z" fill="black"/>
</g>
<defs>
<clipPath id="clip0_21_284">
<path d="M0.578857 3.73682H25.842V29H0.578857V3.73682Z" fill="white"/>
</clipPath>
</defs>
</svg>
