<svg width="20" height="35" viewBox="0 0 20 35" fill="none" xmlns="http://www.w3.org/2000/svg">
<path d="M19.7896 34.2635H0.842285V0.578918H19.7896V34.2635Z" stroke="#E5E7EB"/>
<g clip-path="url(#clip0_21_276)">
<path d="M1.63159 6.89471C1.63159 5.15293 3.04771 3.73682 4.78949 3.73682H15.8421C17.5839 3.73682 19 5.15293 19 6.89471V25.8421C19 27.5839 17.5839 29 15.8421 29H4.78949C3.04771 29 1.63159 27.5839 1.63159 25.8421V6.89471ZM7.94738 25.8421C7.94738 26.2763 8.30264 26.6316 8.73686 26.6316H11.8947C12.329 26.6316 12.6842 26.2763 12.6842 25.8421C12.6842 25.4079 12.329 25.0526 11.8947 25.0526H8.73686C8.30264 25.0526 7.94738 25.4079 7.94738 25.8421ZM15.8421 6.89471H4.78949V22.6842H15.8421V6.89471Z" fill="black"/>
</g>
<defs>
<clipPath id="clip0_21_276">
<path d="M0.842285 3.73682H19.7897V29H0.842285V3.73682Z" fill="white"/>
</clipPath>
</defs>
</svg>
